<?xml version="1.0" standalone="no"?>
<!DOCTYPE svg PUBLIC "-//W3C//DTD SVG 20010904//EN"
 "http://www.w3.org/TR/2001/REC-SVG-20010904/DTD/svg10.dtd">
<svg version="1.0" xmlns="http://www.w3.org/2000/svg"
 width="800.000000pt" height="600.000000pt" viewBox="0 0 800.000000 600.000000"
 preserveAspectRatio="xMidYMid meet">

<g transform="translate(0.000000,600.000000) scale(0.100000,-0.100000)"
fill="#000000" stroke="none">
<path d="M1208 5522 c-20 -2 -41 -8 -46 -15 -14 -17 -17 -3634 -4 -3743 6 -47
7 -95 2 -115 -12 -48 -50 -160 -62 -183 -6 -12 -6 -16 1 -11 14 8 14 -40 0
-66 -11 -21 -4 -59 12 -59 5 0 15 12 22 28 6 15 16 30 22 34 5 4 6 8 2 8 -4 0
-3 9 3 20 6 11 15 18 20 15 8 -5 2 -35 -15 -78 -4 -10 -4 -17 1 -16 5 1 34 0
64 -1 l55 -3 -45 -7 -45 -7 40 -2 c69 -5 120 0 127 12 6 9 8 9 8 0 0 -21 38
-15 45 7 9 27 27 25 23 -2 -4 -29 -31 -35 -183 -38 -66 -2 -110 -5 -98 -7 22
-4 23 -7 22 -173 0 -150 -1 -168 -15 -163 -14 5 -14 3 -3 -16 10 -15 11 -26 4
-38 -6 -11 -8 -39 -4 -68 6 -43 4 -52 -15 -67 -11 -10 -27 -18 -33 -18 -7 0
-13 -7 -13 -15 0 -17 -53 -29 -110 -23 -23 2 -36 0 -30 -6 9 -9 5499 -15 5735
-6 77 3 127 7 110 8 l-30 2 3 167 c2 116 7 170 15 175 9 6 8 11 -3 18 -13 9
-13 11 0 20 11 7 12 12 3 18 -13 8 -21 162 -9 181 5 8 -15 12 -71 13 l-78 2
68 3 c56 3 68 7 63 19 -3 9 -1 12 4 9 11 -7 14 8 3 19 -4 3 -8 16 -10 28 -2
12 -9 26 -16 30 -13 8 -18 60 -4 55 4 -1 25 -36 45 -76 36 -73 63 -103 79 -88
4 5 2 11 -4 15 -7 4 -12 21 -12 37 1 67 -11 127 -41 211 -31 88 -32 91 -24
209 10 168 5 3682 -6 3711 -5 12 -19 28 -31 34 -16 9 -712 11 -2762 8 -1508
-1 -2759 -4 -2779 -6z m3817 -304 c-3 -13 -11 -33 -17 -46 -9 -17 -9 -25 0
-34 21 -21 13 -53 -22 -91 -22 -24 -39 -35 -50 -31 -17 7 -96 -25 -96 -39 0
-5 -9 -7 -20 -4 -11 3 -20 1 -20 -4 0 -5 -5 -9 -11 -9 -5 0 -7 4 -4 10 3 5 -6
12 -20 16 -16 4 -25 13 -25 25 0 11 -7 22 -15 25 -26 11 0 38 82 84 43 24 105
61 137 82 69 44 90 48 81 16z m-505 -164 c0 -8 -4 -12 -10 -9 -5 3 -10 10 -10
16 0 5 5 9 10 9 6 0 10 -7 10 -16z m-33 -62 c-2 -15 -2 -21 0 -14 3 6 11 12
19 12 17 0 18 12 2 28 -7 7 -8 12 -2 12 6 0 15 -5 22 -12 9 -9 7 -17 -11 -36
l-22 -24 22 6 22 7 -22 -40 c-12 -23 -27 -41 -33 -41 -7 0 -15 -15 -18 -34 -4
-22 -14 -37 -26 -41 -11 -4 -18 -10 -15 -15 3 -4 2 -16 -1 -25 -5 -12 -9 -13
-14 -5 -5 8 -10 1 -15 -19 -3 -17 -13 -31 -21 -31 -8 0 -14 -6 -14 -14 0 -22
-77 -103 -142 -148 l-61 -43 234 -3 c205 -2 235 -1 244 13 75 120 118 187 141
217 27 36 28 37 48 20 19 -16 19 -16 12 3 -8 23 -9 25 -7 43 0 6 6 12 12 12 8
0 7 -6 -2 -17 -12 -15 -12 -16 3 -10 12 4 15 2 11 -9 -8 -22 13 -17 31 9 12
17 14 18 9 3 -4 -13 -3 -17 5 -12 7 4 12 1 12 -8 0 -9 5 -16 10 -16 6 0 10 9
10 20 0 11 7 20 15 20 9 0 19 8 22 17 6 15 7 15 14 -3 6 -16 8 -14 8 9 1 16 5
26 11 22 9 -6 50 13 61 28 15 20 49 -19 55 -63 4 -25 10 -49 14 -55 4 -5 11
-24 14 -42 9 -39 34 -63 45 -44 6 9 10 7 14 -8 3 -12 0 -21 -6 -21 -6 0 -7 -3
-4 -7 4 -3 2 -12 -4 -20 -8 -9 -8 -13 -1 -13 6 0 18 10 27 23 12 16 18 19 24
9 8 -13 44 -12 58 2 4 4 15 -3 24 -15 11 -15 21 -19 30 -13 8 5 22 7 32 6 9
-2 17 1 17 6 0 6 18 13 40 17 22 4 40 11 40 16 0 5 15 9 34 9 18 0 47 7 62 15
44 23 101 20 115 -6 11 -21 8 -80 -7 -156 -6 -29 -4 -33 16 -33 20 0 20 -1 5
-17 -9 -9 -41 -35 -71 -58 -82 -64 -154 -134 -154 -150 0 -8 -8 -15 -17 -16
-12 0 -13 -2 -5 -6 10 -4 10 -9 -4 -24 -15 -17 -15 -18 11 -13 34 6 29 -3 -50
-91 -136 -152 -241 -257 -286 -286 -45 -28 -55 -31 -136 -31 -48 0 -95 2 -103
4 -13 3 -15 -50 -16 -421 -1 -388 0 -422 14 -395 23 43 32 92 18 98 -7 3 -7 5
0 5 29 2 79 -91 68 -127 -10 -30 -38 -82 -45 -82 -4 0 -12 7 -19 15 -7 8 -19
15 -26 15 -12 0 -14 -41 -14 -225 l0 -225 -905 0 -905 0 -2 78 c-1 42 -3 141
-3 220 -1 139 -2 143 -26 159 -13 10 -46 39 -73 65 -27 26 -52 48 -55 48 -3 0
-12 -9 -19 -21 -13 -21 -8 -59 9 -59 5 0 9 -7 9 -15 0 -8 5 -15 12 -15 8 0 83
-51 127 -87 2 -1 2 -5 -1 -8 -3 -3 -29 13 -59 35 -29 22 -62 40 -72 40 -18 0
-18 -1 -3 -25 14 -21 5 -18 -56 21 -40 26 -80 53 -88 60 -12 12 -12 14 3 14 9
0 17 6 17 13 -1 16 -32 53 -50 59 -10 3 -8 6 8 10 12 4 20 2 16 -3 -3 -5 11
-9 31 -9 l36 0 -16 30 c-8 16 -15 33 -15 38 0 17 77 -4 112 -31 19 -15 38 -27
42 -27 9 0 89 -52 97 -63 14 -19 17 13 14 118 -2 61 -4 113 -4 117 -1 4 -7 5
-15 2 -8 -3 -48 10 -89 29 -75 35 -157 56 -157 41 0 -4 10 -18 22 -31 12 -13
16 -23 10 -23 -7 0 -12 6 -12 13 0 8 -3 8 -9 -2 -8 -13 -14 -13 -38 -1 -30 14
-45 19 -81 22 -12 1 -20 7 -17 13 3 5 8 18 11 28 8 21 41 22 130 1 55 -12 69
-13 75 -2 7 10 9 10 9 0 0 -10 5 -10 20 -2 11 6 26 10 33 9 6 -1 30 0 52 1 35
2 37 3 15 10 l-25 8 27 1 c17 1 28 -5 31 -16 3 -10 6 54 8 142 6 366 7 541 2
558 -4 16 -6 16 -29 -2 -14 -11 -60 -31 -103 -46 -121 -40 -174 -78 -289 -205
-57 -63 -117 -133 -133 -154 -16 -21 -29 -35 -29 -30 -1 8 -8 84 -12 122 -2
14 -18 17 -18 3 0 -6 -9 -9 -19 -8 -13 1 -25 15 -34 39 -14 36 -14 38 3 38 10
0 26 -7 34 -16 12 -12 16 -12 16 -2 1 8 5 7 14 -5 16 -21 17 -18 35 102 8 48
16 68 33 80 12 9 45 33 73 53 27 20 76 54 108 75 32 21 87 57 122 80 75 50
159 93 178 93 28 0 41 -28 28 -58 -9 -18 -9 -28 -2 -30 6 -2 12 -11 13 -20 3
-33 16 125 17 211 l1 88 -54 24 c-107 47 -171 58 -331 58 -82 0 -141 3 -130 7
11 4 25 5 32 3 6 -2 50 14 97 36 81 39 154 65 313 111 40 11 76 26 80 33 26
41 387 151 547 166 56 6 110 13 119 17 21 8 22 -9 2 -26 -9 -7 -28 -38 -43
-68 -39 -80 -131 -165 -228 -213 -44 -21 -84 -39 -87 -39 -4 0 -7 8 -8 18 0
14 -2 14 -9 -3 -5 -11 -9 -23 -9 -27 -1 -5 108 -8 242 -8 243 0 243 0 277 25
37 27 61 23 34 -6 -17 -19 -15 -19 76 -19 106 0 107 1 161 109 16 32 43 72 59
90 17 17 30 36 30 42 0 12 30 45 30 32 0 -18 20 23 20 42 0 29 57 95 75 88 8
-3 15 0 15 7 0 6 -4 8 -10 5 -22 -13 -8 12 30 55 26 30 39 39 40 28 0 -9 -6
-18 -12 -21 -7 -2 -10 -8 -6 -12 4 -4 15 3 25 14 16 20 18 20 25 4 5 -14 7
-11 7 10 1 17 5 26 12 22 5 -4 8 -19 6 -33z m388 -161 c3 -5 1 -12 -5 -16 -5
-3 -10 1 -10 9 0 18 6 21 15 7z m-1640 -41 c-11 -5 -54 -23 -95 -41 -41 -17
-88 -37 -105 -45 -55 -24 -247 -94 -260 -94 -7 0 -15 6 -18 14 -6 16 125 80
238 117 110 36 296 74 240 49z m1085 -245 c-14 -26 -30 -33 -30 -13 0 14 31
50 38 43 3 -3 -1 -16 -8 -30z m-1865 -38 c-11 -8 -41 -24 -67 -37 -26 -13 -73
-49 -105 -80 -58 -57 -58 -57 -133 -64 -41 -4 -99 -15 -127 -25 -29 -10 -53
-16 -53 -14 0 7 109 53 125 53 8 0 15 4 15 8 0 12 87 58 225 119 121 53 156
64 120 40z m389 -199 c22 -19 32 -34 25 -38 -6 -4 -11 -14 -13 -23 -3 -20 -45
-67 -61 -67 -6 0 -38 -21 -71 -47 -79 -64 -119 -89 -246 -157 -93 -50 -114
-66 -160 -124 -173 -214 -177 -223 -159 -288 13 -48 2 -59 -70 -69 -55 -8
-109 8 -109 31 0 8 -7 14 -15 14 -17 0 -39 36 -30 50 3 6 2 10 -2 10 -5 0 -9
17 -9 38 -1 62 -15 125 -35 153 -16 23 -17 28 -4 33 15 6 113 -20 131 -35 13
-11 104 20 104 35 0 5 24 41 54 80 30 39 70 105 90 146 22 47 35 67 35 53 1
-13 6 -23 11 -23 17 0 11 -18 -22 -65 -17 -24 -28 -48 -23 -52 4 -5 10 -2 13
6 3 10 6 10 12 1 10 -16 52 7 111 62 16 14 31 22 35 17 10 -17 24 2 74 101 51
101 70 121 145 153 34 15 103 32 142 36 6 1 27 -13 47 -31z m-629 -84 c-10
-16 -14 -36 -11 -52 4 -17 -4 -49 -20 -87 -14 -33 -33 -79 -41 -103 -10 -26
-30 -54 -51 -70 -32 -24 -43 -27 -108 -25 -40 1 -91 10 -115 20 -26 10 -71 17
-109 17 -36 0 -57 2 -47 4 9 2 17 8 17 14 0 6 8 18 19 27 27 24 75 125 55 117
-9 -3 -19 -6 -24 -6 -4 0 -15 -15 -24 -32 l-17 -33 5 30 c4 17 9 41 11 55 4
18 3 21 -4 10 -5 -8 -7 -18 -5 -22 3 -4 -2 -5 -11 -2 -14 6 -10 14 21 45 36
37 64 53 48 27 -4 -7 -3 -8 5 -4 6 4 9 11 6 16 -3 5 -1 11 5 15 5 3 10 2 10
-4 0 -6 16 -1 35 11 20 11 39 18 42 14 3 -3 12 -1 18 4 7 6 57 11 112 13 56 2
107 7 114 13 8 5 26 16 42 24 15 7 28 18 28 24 1 6 4 1 6 -12 3 -13 -3 -34
-12 -48z m4370 36 c3 -5 -2 -10 -12 -11 -16 0 -16 -1 2 -9 15 -6 16 -9 4 -9
-9 -1 -24 -10 -35 -22 -10 -12 -32 -28 -49 -36 -33 -17 -167 -104 -175 -114
-6 -8 -151 -82 -264 -134 -85 -40 -216 -87 -216 -78 0 3 -6 0 -14 -6 -8 -7
-28 -16 -45 -21 -28 -8 -30 -7 -21 10 23 43 339 317 377 326 13 4 23 11 23 18
0 15 211 70 245 64 14 -3 25 -2 25 2 0 4 17 6 38 5 20 -1 42 2 47 6 9 6 34 14
57 18 4 0 10 -3 13 -9z m85 -147 c0 -7 -6 -13 -14 -13 -8 0 -16 -3 -18 -7 -3
-9 -64 -53 -72 -53 -3 0 -51 -31 -108 -68 -57 -38 -112 -71 -123 -74 -11 -4
-58 -20 -105 -38 -47 -18 -98 -35 -115 -40 -77 -19 -251 -86 -267 -102 -10
-10 -29 -23 -42 -28 -13 -4 -26 -18 -29 -29 -7 -30 36 -41 297 -76 126 -18
258 -55 265 -76 2 -8 -2 -10 -13 -6 -9 4 -15 3 -11 -2 3 -5 1 -11 -5 -13 -5
-1 11 -3 36 -4 25 -1 49 -5 52 -11 4 -5 19 -13 34 -16 15 -4 33 -13 40 -20 8
-6 22 -17 33 -23 10 -6 23 -19 29 -30 6 -10 14 -21 17 -24 4 -3 9 -15 13 -27
12 -39 -20 -28 -123 41 -53 36 -108 70 -123 77 -16 7 -28 18 -28 25 0 8 -14
13 -41 12 l-40 0 28 -18 c36 -22 81 -73 93 -106 8 -19 6 -28 -10 -44 -19 -19
-22 -19 -44 -5 -15 10 -27 12 -30 6 -4 -5 -31 -13 -61 -16 -31 -4 -58 -11 -61
-16 -3 -5 -15 -9 -27 -10 -12 0 -16 -3 -9 -6 29 -12 -2 -20 -45 -11 -27 5 -66
6 -88 2 -38 -6 -39 -7 -15 -16 25 -10 25 -10 4 -18 -12 -5 -25 -14 -30 -21 -5
-8 -3 -10 6 -4 10 6 12 4 7 -7 -3 -9 -1 -20 5 -26 17 -17 58 -142 58 -178 0
-66 23 -133 62 -180 51 -62 50 -74 -4 -62 -24 4 -69 11 -100 15 -55 5 -58 5
-69 -21 -7 -14 -17 -26 -23 -26 -6 0 -5 -5 2 -12 7 -7 12 -24 12 -38 0 -43 63
-65 185 -63 l100 1 -45 -20 c-50 -22 -167 -26 -270 -8 -30 5 -82 14 -115 19
-33 5 -69 13 -79 17 -14 5 -17 4 -12 -4 4 -7 16 -12 27 -12 10 0 19 -4 19 -8
0 -10 94 -52 115 -52 7 0 17 -4 20 -10 3 -5 14 -10 24 -10 9 0 26 -7 37 -16
18 -15 18 -15 -6 -9 -14 3 -36 8 -50 11 -28 5 -152 55 -160 64 -12 14 -65 30
-117 37 -60 7 -97 31 -87 58 7 16 44 20 60 7 13 -12 71 -35 61 -25 -10 10 -98
64 -149 93 -41 22 -63 50 -73 93 -6 24 -5 27 19 27 16 0 29 7 33 18 4 9 11 20
17 24 14 9 116 -47 116 -65 0 -19 55 -83 83 -96 l32 -16 -28 -3 c-16 -2 -47 7
-74 22 -51 29 -53 30 -53 17 0 -5 13 -13 28 -19 16 -5 35 -16 43 -24 23 -22
112 -70 140 -74 15 -3 31 1 38 10 11 13 19 13 56 2 l44 -14 -10 25 c-13 35
-11 74 6 106 14 27 13 29 -5 34 -11 3 -20 9 -20 13 0 22 14 40 30 40 10 0 28
13 40 30 32 45 19 93 -39 148 -35 33 -51 42 -68 37 -15 -3 -23 -1 -23 7 0 9
-3 9 -12 0 -9 -9 -8 -16 5 -30 21 -23 21 -32 3 -32 -8 0 -56 42 -106 93 -65
65 -88 84 -81 65 13 -35 1 -36 -19 -4 -8 14 -40 51 -70 83 -167 176 -163 170
-148 192 13 19 80 79 149 135 13 11 72 63 131 116 104 93 109 96 185 114 43
10 85 21 93 24 19 6 71 2 88 -7 31 -17 352 120 383 163 4 5 13 6 20 4 8 -3 19
0 24 7 6 6 30 20 55 30 25 10 52 24 60 30 8 6 35 20 60 30 25 10 49 22 53 25
14 12 37 7 37 -7z m-4946 -137 c-3 -15 -8 -25 -11 -23 -2 3 -1 17 3 31 3 15 8
25 11 23 2 -3 1 -17 -3 -31z m4312 -111 c-8 -8 -19 -15 -24 -15 -6 0 -12 -5
-14 -12 -3 -9 -6 -9 -11 -1 -4 7 4 18 20 26 37 20 48 20 29 2z m-4488 -188 c3
-12 -4 -17 -22 -17 -32 0 -42 16 -19 29 23 13 37 9 41 -12z m4525 7 c-4 -21
-32 -28 -58 -14 -14 8 -21 16 -15 20 16 10 75 5 73 -6z m-749 -16 c-62 -72
-86 -95 -99 -95 -8 0 -15 7 -15 15 0 8 6 12 13 9 6 -2 32 18 57 44 44 48 81
70 44 27z m-140 -113 c-10 -8 -26 -14 -34 -15 -8 0 -1 8 15 19 34 21 48 18 19
-4z m1483 -77 c-2 -13 -4 -5 -4 17 -1 22 1 32 4 23 2 -10 2 -28 0 -40z m-18
15 c-1 -22 -2 -23 -6 -8 -3 11 -10 23 -17 27 -7 5 -5 8 7 8 12 0 17 -7 16 -27z
m-4831 -140 c-23 -38 -34 -39 -19 -2 5 13 12 33 16 44 5 15 8 16 14 6 6 -9 1
-26 -11 -48z m3373 -34 c-40 -39 -50 -54 -40 -60 10 -6 7 -9 -11 -9 -28 -1
-63 -23 -53 -33 3 -4 21 -7 40 -7 18 0 33 -2 33 -5 0 -2 -9 -27 -20 -55 -11
-28 -20 -64 -20 -80 0 -16 9 -52 20 -80 11 -28 20 -53 20 -55 0 -6 -84 90
-127 146 -33 41 -43 79 -21 79 6 0 9 3 5 6 -3 3 -19 -3 -35 -15 -17 -12 -35
-21 -42 -21 -6 0 -9 -4 -6 -9 6 -10 -33 -23 -46 -15 -8 5 329 261 346 263 5 1
-14 -22 -43 -50z m-2562 -5 c7 -7 -1 -9 -124 -43 -66 -18 -146 -36 -177 -39
-59 -5 -67 -9 -47 -29 9 -9 6 -13 -12 -18 -27 -7 -95 18 -101 36 -8 23 -48 -2
-68 -42 -11 -21 -24 -39 -28 -39 -23 1 -59 55 -42 65 19 12 126 47 158 52 17
3 32 9 32 13 0 4 37 11 83 15 45 4 113 13 150 20 38 8 83 12 100 9 26 -4 28
-3 12 6 -15 7 -10 8 20 3 22 -3 42 -7 44 -9z m-855 -18 c-10 -8 -21 -12 -24
-10 -5 6 21 24 34 24 6 0 1 -6 -10 -14z m876 -27 c0 -5 -18 -9 -41 -9 -22 0
-38 4 -35 9 3 5 22 9 41 9 19 0 35 -4 35 -9z m100 -50 c0 -15 -7 -19 -40 -19
-28 0 -40 4 -40 14 0 15 13 20 57 22 16 1 23 -3 23 -17z m-93 -11 c-3 -8 -6
-5 -6 6 -1 11 2 17 5 13 3 -3 4 -12 1 -19z m3749 3 c-3 -4 -37 -16 -75 -25
-126 -31 -188 -73 -209 -144 -20 -67 -16 -108 15 -130 l27 -19 -18 -37 c-20
-43 -51 -48 -84 -13 -34 36 -44 76 -37 144 6 56 10 65 49 101 61 57 81 67 181
101 86 29 162 40 151 22z m-3528 -51 c44 -20 58 -36 21 -25 -12 4 -19 3 -16
-2 3 -5 -13 -5 -38 1 -24 6 -42 13 -39 17 2 4 -4 12 -13 18 -34 20 39 12 85
-9z m-718 -20 c0 -12 -28 -25 -36 -17 -9 9 6 27 22 27 8 0 14 -5 14 -10z
m3224 -11 c42 -19 78 -70 62 -86 -3 -3 -32 13 -65 35 -33 23 -65 42 -71 42
-10 0 -10 3 0 15 16 19 22 19 74 -6z m-186 -15 c0 -15 -4 -22 -10 -16 -5 5 -6
16 -2 25 9 23 12 21 12 -9z m-2738 2 c0 -3 -4 -8 -10 -11 -5 -3 -10 -1 -10 4
0 6 5 11 10 11 6 0 10 -2 10 -4z m2850 -41 c34 -17 38 -30 13 -39 -17 -7 -103
32 -103 46 0 14 60 9 90 -7z m-110 -236 c0 -23 -13 -25 -31 -3 -10 13 -10 17
1 24 18 11 30 3 30 -21z m-242 -183 c15 -8 40 -28 55 -44 27 -28 28 -32 17
-73 -7 -24 -21 -61 -31 -81 -24 -48 -24 -50 7 -46 24 3 30 12 55 93 16 50 29
93 29 97 0 4 5 19 11 35 9 25 11 26 20 10 18 -31 12 -90 -15 -154 -31 -75 -32
-83 -6 -83 13 0 26 12 37 35 9 19 21 35 25 35 5 0 4 -9 -2 -19 -28 -54 -74
-51 755 -51 l765 0 0 -63 0 -64 -547 -7 c-302 -3 -1521 -6 -2710 -6 l-2163 1
0 69 0 70 1846 0 1846 0 -5 23 c-3 12 -12 49 -21 82 -18 70 -21 155 -6 155 6
0 23 -6 38 -14z m-1068 -506 c0 -7 7 -7 20 0 12 6 33 10 48 8 26 -4 26 -4 -8
-14 -27 -8 -36 -16 -38 -37 -3 -23 0 -27 25 -28 23 -1 24 -3 6 -6 -12 -2 -31
1 -43 7 -16 9 -25 8 -35 0 -21 -17 -79 -8 -83 12 -3 13 8 20 42 29 50 12 54
32 6 22 -19 -3 -30 -1 -30 6 0 6 18 11 45 11 25 0 45 -5 45 -10z m243 -2 c-18
-5 -33 -14 -33 -21 0 -8 -17 -12 -48 -13 -30 -1 -38 1 -23 5 34 9 39 31 8 31
-28 0 -47 -19 -50 -49 -1 -23 -17 -18 -17 6 0 39 29 52 114 51 66 -1 75 -3 49
-10z m2173 -290 c9 -10 -18 -10 -941 -16 -285 -2 -482 -7 -470 -12 18 -8 17
-9 -7 -9 -16 -1 -28 3 -28 9 0 12 -798 11 -806 -1 -3 -5 -10 -7 -15 -3 -6 3
-66 8 -135 11 -90 3 -129 1 -139 -7 -8 -7 -15 -9 -15 -4 0 15 -232 18 -241 3
-5 -9 -11 -10 -21 -2 -8 6 -155 11 -408 12 -1248 8 -1427 11 -1250 20 161 9
4467 7 4476 -1z m-4566 -28 c0 -5 -7 -7 -15 -4 -8 4 -15 8 -15 10 0 2 7 4 15
4 8 0 15 -4 15 -10z m30 6 c0 -3 -4 -8 -10 -11 -5 -3 -10 -1 -10 4 0 6 5 11
10 11 6 0 10 -2 10 -4z m240 -6 c0 -5 -8 -10 -17 -10 -15 0 -16 2 -3 10 19 12
20 12 20 0z m261 -12 c-13 -4 -27 -5 -33 -2 -16 10 11 22 35 16 20 -5 20 -5
-2 -14z m3672 7 c-3 -9 -8 -14 -10 -11 -3 3 -2 9 2 15 9 16 15 13 8 -4z
m-3403 -5 c0 -5 -7 -10 -15 -10 -8 0 -15 5 -15 10 0 6 7 10 15 10 8 0 15 -4
15 -10z m257 4 c-3 -3 -12 -4 -19 -1 -8 3 -5 6 6 6 11 1 17 -2 13 -5z m531 -1
c-10 -2 -26 -2 -35 0 -10 3 -2 5 17 5 19 0 27 -2 18 -5z m265 0 c-7 -2 -21 -2
-30 0 -10 3 -4 5 12 5 17 0 24 -2 18 -5z m267 -3 c0 -5 -11 -10 -25 -10 -14 0
-25 5 -25 10 0 6 11 10 25 10 14 0 25 -4 25 -10z m272 -2 c-17 -8 -26 -8 -34
0 -9 9 -4 12 23 11 32 0 33 -1 11 -11z m278 2 c0 -13 -30 -13 -50 0 -11 7 -7
10 18 10 17 0 32 -4 32 -10z m705 0 c-11 -5 -27 -9 -35 -9 -13 -1 -13 0 0 9 8
5 24 9 35 9 l20 0 -20 -9z m323 3 c-10 -2 -28 -2 -40 0 -13 2 -5 4 17 4 22 1
32 -1 23 -4z m-3225 -10 c-7 -2 -19 -2 -25 0 -7 3 -2 5 12 5 14 0 19 -2 13 -5z
m270 0 c-7 -2 -19 -2 -25 0 -7 3 -2 5 12 5 14 0 19 -2 13 -5z m447 -3 c0 -5
-5 -10 -11 -10 -5 0 -7 5 -4 10 3 6 8 10 11 10 2 0 4 -4 4 -10z m230 0 c0 -5
-4 -10 -10 -10 -5 0 -10 5 -10 10 0 6 5 10 10 10 6 0 10 -4 10 -10z m35 0 c3
-5 1 -10 -4 -10 -6 0 -11 5 -11 10 0 6 2 10 4 10 3 0 8 -4 11 -10z m522 -12
c-3 -8 -6 -5 -6 6 -1 11 2 17 5 13 3 -3 4 -12 1 -19z m273 18 c0 -3 -4 -8 -10
-11 -5 -3 -10 -1 -10 4 0 6 5 11 10 11 6 0 10 -2 10 -4z m217 -18 c-3 -8 -6
-5 -6 6 -1 11 2 17 5 13 3 -3 4 -12 1 -19z m43 6 c0 -8 -5 -12 -10 -9 -6 4 -8
11 -5 16 9 14 15 11 15 -7z m270 12 c0 -3 -4 -8 -10 -11 -5 -3 -10 -1 -10 4 0
6 5 11 10 11 6 0 10 -2 10 -4z m219 -13 c0 -11 -3 -13 -6 -5 -2 6 -10 9 -15 6
-7 -4 -8 -2 -4 4 11 18 26 14 25 -5z m1848 1 c-3 -3 -12 -4 -19 -1 -8 3 -5 6
6 6 11 1 17 -2 13 -5z m-4404 -11 c-7 -2 -19 -2 -25 0 -7 3 -2 5 12 5 14 0 19
-2 13 -5z m927 -9 c0 -2 -9 -4 -20 -4 -11 0 -20 4 -20 9 0 5 9 7 20 4 11 -3
20 -7 20 -9z m1560 0 c0 -2 -12 -4 -27 -4 -21 0 -24 3 -14 9 13 8 41 5 41 -5z
m304 4 c-3 -4 -12 -8 -20 -8 -8 0 -14 4 -14 8 0 4 9 8 19 8 11 0 17 -4 15 -8z
m906 -1 c0 -7 9 -29 19 -50 10 -20 15 -37 11 -37 -12 0 -27 23 -34 55 -4 16
-13 33 -19 37 -8 5 -6 8 6 8 9 0 17 -6 17 -13z m517 7 c-3 -3 -12 -4 -19 -1
-8 3 -5 6 6 6 11 1 17 -2 13 -5z m-4455 -16 c-9 -9 -15 -9 -24 0 -9 9 -7 12
12 12 19 0 21 -3 12 -12z m298 2 c0 -5 -5 -10 -11 -10 -5 0 -7 5 -4 10 3 6 8
10 11 10 2 0 4 -4 4 -10z m235 2 c-11 -4 -22 -16 -23 -27 -6 -30 -12 -32 -12
-3 0 30 7 38 34 37 20 -1 21 -1 1 -7z m75 -2 c0 -5 -5 -10 -11 -10 -5 0 -7 5
-4 10 3 6 8 10 11 10 2 0 4 -4 4 -10z m1493 3 c-7 -2 -21 -2 -30 0 -10 3 -4 5
12 5 17 0 24 -2 18 -5z m310 0 c-7 -2 -19 -2 -25 0 -7 3 -2 5 12 5 14 0 19 -2
13 -5z m697 3 c0 -3 -4 -8 -10 -11 -5 -3 -10 -1 -10 4 0 6 5 11 10 11 6 0 10
-2 10 -4z m-2187 -13 c-7 -2 -19 -2 -25 0 -7 3 -2 5 12 5 14 0 19 -2 13 -5z
m627 -3 c0 -5 -7 -10 -15 -10 -8 0 -15 5 -15 10 0 6 7 10 15 10 8 0 15 -4 15
-10z m310 6 c0 -3 -4 -8 -10 -11 -5 -3 -10 -1 -10 4 0 6 5 11 10 11 6 0 10 -2
10 -4z m1190 -18 c0 -18 -2 -20 -9 -8 -6 8 -7 18 -5 22 9 14 14 9 14 -14z
m279 -28 l-1 -25 -8 25 c-4 14 -8 32 -9 40 -1 13 0 13 9 0 5 -8 9 -26 9 -40z
m-3259 36 c0 -2 -7 -6 -15 -10 -8 -3 -15 -1 -15 4 0 6 7 10 15 10 8 0 15 -2
15 -4z m305 -6 c-3 -5 -11 -10 -16 -10 -6 0 -7 5 -4 10 3 6 11 10 16 10 6 0 7
-4 4 -10z m315 0 c0 -5 -4 -10 -9 -10 -6 0 -13 5 -16 10 -3 6 1 10 9 10 9 0
16 -4 16 -10z m172 -20 c-2 -16 -9 -30 -14 -30 -6 0 -7 7 -4 16 3 9 6 22 6 30
0 8 4 14 8 14 5 0 7 -13 4 -30z m138 20 c0 -5 -7 -10 -15 -10 -8 0 -15 5 -15
10 0 6 7 10 15 10 8 0 15 -4 15 -10z m70 0 c0 -5 -4 -10 -10 -10 -5 0 -10 5
-10 10 0 6 5 10 10 10 6 0 10 -4 10 -10z m70 -6 c0 -8 -4 -12 -10 -9 -5 3 -10
10 -10 16 0 5 5 9 10 9 6 0 10 -7 10 -16z m34 -11 c-10 -40 -14 -41 -14 -5 0
18 5 32 10 32 6 0 8 -11 4 -27z m141 17 c3 -5 -3 -10 -14 -10 -12 0 -21 5 -21
10 0 6 6 10 14 10 8 0 18 -4 21 -10z m310 0 c-3 -5 -10 -10 -16 -10 -5 0 -9 5
-9 10 0 6 7 10 16 10 8 0 12 -4 9 -10z m315 -5 c0 -8 -6 -15 -14 -15 -17 0
-28 14 -19 24 12 12 33 6 33 -9z m316 2 c4 -4 -2 -7 -14 -7 -12 0 -22 4 -22 9
0 10 26 9 36 -2z m129 4 c3 -5 1 -12 -5 -16 -5 -3 -10 1 -10 9 0 18 6 21 15 7z
m185 -1 c0 -5 -9 -10 -20 -10 -11 0 -20 5 -20 10 0 6 9 10 20 10 11 0 20 -4
20 -10z m630 0 c0 -5 -7 -10 -15 -10 -8 0 -15 5 -15 10 0 6 7 10 15 10 8 0 15
-4 15 -10z m290 0 c0 -5 -4 -10 -9 -10 -6 0 -13 5 -16 10 -3 6 1 10 9 10 9 0
16 -4 16 -10z m95 -8 c-3 -3 -11 0 -18 7 -9 10 -8 11 6 5 10 -3 15 -9 12 -12z
m35 8 c0 -5 -5 -10 -11 -10 -5 0 -7 5 -4 10 3 6 8 10 11 10 2 0 4 -4 4 -10z
m150 0 c0 -5 -5 -10 -11 -10 -5 0 -7 5 -4 10 3 6 8 10 11 10 2 0 4 -4 4 -10z
m60 0 c0 -5 -4 -10 -10 -10 -5 0 -10 5 -10 10 0 6 5 10 10 10 6 0 10 -4 10
-10z m80 -4 c0 -8 2 -21 5 -29 4 -8 0 -14 -8 -14 -9 0 -14 11 -13 29 1 28 16
41 16 14z m269 -38 c1 -5 -5 -8 -13 -8 -9 0 -12 8 -8 27 5 25 6 25 13 8 4 -11
8 -23 8 -27z m-806 12 c3 -11 1 -20 -4 -20 -5 0 -9 9 -9 20 0 11 2 20 4 20 2
0 6 -9 9 -20z m861 -23 c7 -5 4 -6 -7 -3 -10 3 -21 6 -23 6 -2 0 -4 10 -4 23
1 21 1 21 12 2 6 -11 16 -24 22 -28z m-4354 18 c0 -8 -4 -15 -10 -15 -5 0 -7
7 -4 15 4 8 8 15 10 15 2 0 4 -7 4 -15z m663 0 c-3 -9 -8 -14 -10 -11 -3 3 -2
9 2 15 9 16 15 13 8 -4z m3891 0 c3 -9 0 -15 -9 -15 -9 0 -12 6 -9 15 4 8 7
15 9 15 2 0 5 -7 9 -15z m60 -24 c-8 -9 -34 10 -34 25 0 16 2 16 19 -2 10 -10
17 -21 15 -23z m-4997 23 c-3 -3 -12 -4 -19 -1 -8 3 -5 6 6 6 11 1 17 -2 13
-5z m40 0 c-3 -3 -12 -4 -19 -1 -8 3 -5 6 6 6 11 1 17 -2 13 -5z m33 -4 c0 -5
-5 -10 -11 -10 -5 0 -7 5 -4 10 3 6 8 10 11 10 2 0 4 -4 4 -10z m77 4 c-3 -3
-12 -4 -19 -1 -8 3 -5 6 6 6 11 1 17 -2 13 -5z m40 0 c-3 -3 -12 -4 -19 -1 -8
3 -5 6 6 6 11 1 17 -2 13 -5z m441 -1 c-10 -2 -26 -2 -35 0 -10 3 -2 5 17 5
19 0 27 -2 18 -5z m149 1 c-3 -3 -12 -4 -19 -1 -8 3 -5 6 6 6 11 1 17 -2 13
-5z m161 -1 c-10 -2 -26 -2 -35 0 -10 3 -2 5 17 5 19 0 27 -2 18 -5z m175 0
c-7 -2 -21 -2 -30 0 -10 3 -4 5 12 5 17 0 24 -2 18 -5z m160 0 c-13 -2 -35 -2
-50 0 -16 2 -5 4 22 4 28 0 40 -2 28 -4z m165 0 c-10 -2 -28 -2 -40 0 -13 2
-5 4 17 4 22 1 32 -1 23 -4z m182 -4 c0 -4 -8 -7 -17 -7 -10 0 -49 -1 -88 -4
-38 -3 -55 -3 -37 -1 17 2 32 9 32 14 0 6 24 9 55 8 30 -1 55 -6 55 -10z m325
1 c-3 -5 -11 -10 -16 -10 -6 0 -7 5 -4 10 3 6 11 10 16 10 6 0 7 -4 4 -10z
m306 -13 c-10 -9 -11 -8 -5 6 3 10 9 15 12 12 3 -3 0 -11 -7 -18z m949 7 c0
-2 -7 -4 -15 -4 -8 0 -15 4 -15 10 0 5 7 7 15 4 8 -4 15 -8 15 -10z m294 8 c2
-4 -11 -6 -30 -4 -19 2 -34 6 -34 8 0 8 59 4 64 -4z m139 1 c-13 -2 -33 -2
-45 0 -13 2 -3 4 22 4 25 0 35 -2 23 -4z m134 1 c-3 -3 -12 -4 -19 -1 -8 3 -5
6 6 6 11 1 17 -2 13 -5z m453 -4 c0 -12 -127 -12 -155 0 -13 6 9 9 68 9 52 1
87 -3 87 -9z m145 0 c-28 -12 -135 -12 -135 0 0 6 32 10 78 9 52 0 71 -3 57
-9z m-4105 -12 c0 -5 -16 -8 -36 -8 -19 0 -33 4 -30 9 7 10 66 9 66 -1z m2123
5 c-13 -2 -35 -2 -50 0 -16 2 -5 4 22 4 28 0 40 -2 28 -4z m54 1 c-3 -3 -12
-4 -19 -1 -8 3 -5 6 6 6 11 1 17 -2 13 -5z m2606 -1 c-7 -2 -19 -2 -25 0 -7 3
-2 5 12 5 14 0 19 -2 13 -5z m140 0 c-7 -2 -19 -2 -25 0 -7 3 -2 5 12 5 14 0
19 -2 13 -5z m-4625 -10 c-10 -2 -28 -2 -40 0 -13 2 -5 4 17 4 22 1 32 -1 23
-4z m320 0 c-10 -2 -28 -2 -40 0 -13 2 -5 4 17 4 22 1 32 -1 23 -4z m305 0
c-13 -2 -33 -2 -45 0 -13 2 -3 4 22 4 25 0 35 -2 23 -4z m652 -3 c-3 -5 -22
-10 -41 -10 -19 0 -34 5 -34 10 0 6 18 10 41 10 24 0 38 -4 34 -10z m315 0 c0
-5 -16 -10 -35 -10 -19 0 -35 5 -35 10 0 6 16 10 35 10 19 0 35 -4 35 -10z
m630 0 c0 -5 -18 -10 -41 -10 -24 0 -38 4 -34 10 3 6 22 10 41 10 19 0 34 -4
34 -10z m305 0 c-3 -5 -15 -10 -25 -10 -10 0 -22 5 -25 10 -4 6 7 10 25 10 18
0 29 -4 25 -10z m333 5 c-8 -8 -77 -9 -85 -2 -3 4 15 7 42 7 27 0 46 -2 43 -5z
m300 -2 c-10 -2 -28 -2 -40 0 -13 2 -5 4 17 4 22 1 32 -1 23 -4z m305 0 c-7
-2 -21 -2 -30 0 -10 3 -4 5 12 5 17 0 24 -2 18 -5z m-1570 -10 c-13 -2 -33 -2
-45 0 -13 2 -3 4 22 4 25 0 35 -2 23 -4z m-2390 -10 c-7 -2 -19 -2 -25 0 -7 3
-2 5 12 5 14 0 19 -2 13 -5z m447 -38 c-15 -39 -23 -25 -8 16 6 18 13 29 15
23 2 -6 -1 -24 -7 -39z m330 35 c0 -5 -4 -10 -10 -10 -5 0 -10 5 -10 10 0 6 5
10 10 10 6 0 10 -4 10 -10z m305 -30 c-4 -17 -9 -29 -12 -26 -3 2 -2 19 2 36
4 17 9 29 12 26 3 -2 2 -19 -2 -36z m325 36 c0 -1 -5 -17 -11 -35 l-11 -31
-94 0 c-102 0 -98 2 -109 -62 -3 -21 -11 -38 -16 -38 -6 0 -8 10 -4 23 4 12 9
29 11 38 3 9 -5 20 -18 27 -22 10 -22 11 7 13 l30 1 -30 8 c-19 5 17 8 98 9
l127 1 0 25 c0 14 5 25 10 25 6 0 10 -2 10 -4z m1940 -29 c0 -21 4 -22 77 -21
l78 2 -80 -7 c-44 -4 -80 -7 -81 -6 -1 0 -4 15 -7 33 -4 21 -3 31 3 27 6 -3
10 -16 10 -28z m137 18 c0 -8 -4 -15 -9 -15 -4 0 -8 7 -8 15 0 8 4 15 8 15 5
0 9 -7 9 -15z m143 -39 c0 -25 -2 -27 -16 -15 -9 7 -12 15 -7 16 6 2 8 16 6
31 -4 21 -2 24 6 12 6 -8 11 -28 11 -44z m39 4 l-1 -25 -8 25 c-4 14 -8 32 -9
40 -1 13 0 13 9 0 5 -8 9 -26 9 -40z m136 41 c3 -5 1 -12 -5 -16 -5 -3 -10 1
-10 9 0 18 6 21 15 7z m143 -45 c-2 -7 -17 -9 -38 -5 l-35 6 33 2 c30 1 32 3
27 29 -5 27 -5 27 5 3 6 -14 9 -30 8 -35z m38 33 c1 -5 2 -15 3 -21 1 -10 45
-12 191 -10 l190 3 -6 27 c-14 57 15 6 35 -64 25 -83 26 -95 8 -88 -7 2 -13
19 -13 37 0 70 8 67 -214 67 -191 0 -200 1 -200 19 0 11 -5 23 -10 26 -6 4 -8
11 -4 16 6 11 18 4 20 -12z m429 11 c3 -5 1 -10 -4 -10 -6 0 -11 5 -11 10 0 6
2 10 4 10 3 0 8 -4 11 -10z m260 0 c3 -5 1 -10 -4 -10 -6 0 -11 5 -11 10 0 6
2 10 4 10 3 0 8 -4 11 -10z m-4785 -10 c0 -5 -5 -10 -11 -10 -5 0 -7 5 -4 10
3 6 8 10 11 10 2 0 4 -4 4 -10z m35 0 c3 -5 -1 -10 -9 -10 -9 0 -16 5 -16 10
0 6 4 10 9 10 6 0 13 -4 16 -10z m115 6 c0 -3 -4 -8 -10 -11 -5 -3 -10 -1 -10
4 0 6 5 11 10 11 6 0 10 -2 10 -4z m291 -9 c-7 -7 -18 -7 -33 0 -20 9 -20 10
10 10 22 0 29 -4 23 -10z m279 3 c0 -5 -2 -10 -4 -10 -3 0 -8 5 -11 10 -3 6
-1 10 4 10 6 0 11 -4 11 -10z m44 -2 c-3 -4 -11 -5 -19 -1 -21 7 -19 12 4 10
11 0 18 -5 15 -9z m150 -22 c-3 -15 -8 -25 -11 -23 -2 3 -1 17 3 31 3 15 8 25
11 23 2 -3 1 -17 -3 -31z m156 24 c0 -5 -6 -10 -14 -10 -8 0 -18 5 -21 10 -3
6 3 10 14 10 12 0 21 -4 21 -10z m320 1 c0 -5 -11 -8 -25 -8 -13 0 -22 3 -19
8 3 5 14 9 25 9 10 0 19 -4 19 -9z m157 -13 c-3 -8 -6 -5 -6 6 -1 11 2 17 5
13 3 -3 4 -12 1 -19z m148 12 c-3 -5 -12 -7 -20 -3 -21 7 -19 13 6 13 11 0 18
-4 14 -10z m126 -53 c-13 -13 -14 5 -3 43 l7 25 3 -29 c2 -16 -1 -33 -7 -39z
m46 41 c-3 -8 -6 -5 -6 6 -1 11 2 17 5 13 3 -3 4 -12 1 -19z m143 8 c-7 -7
-13 -7 -20 0 -6 6 -3 10 10 10 13 0 16 -4 10 -10z m180 -1 c0 -8 -4 -15 -10
-15 -5 0 -7 7 -4 15 4 8 8 15 10 15 2 0 4 -7 4 -15z m316 -12 c-10 -10 -19 5
-10 18 6 11 8 11 12 0 2 -7 1 -15 -2 -18z m271 5 c-3 -8 -6 -5 -6 6 -1 11 2
17 5 13 3 -3 4 -12 1 -19z m40 0 c-3 -8 -6 -5 -6 6 -1 11 2 17 5 13 3 -3 4
-12 1 -19z m163 13 c0 -5 -11 -8 -25 -7 -33 1 -33 16 0 16 14 0 25 -4 25 -9z
m120 -28 c0 -43 -5 -41 -13 5 -4 18 -2 32 3 32 6 0 10 -16 10 -37z m37 15 c-3
-8 -6 -5 -6 6 -1 11 2 17 5 13 3 -3 4 -12 1 -19z m143 12 c-19 -13 -30 -13
-30 0 0 6 10 10 23 10 18 0 19 -2 7 -10z m1025 -8 c-3 -3 -11 0 -18 7 -9 10
-8 11 6 5 10 -3 15 -9 12 -12z m345 14 c0 -11 -19 -15 -25 -6 -3 5 1 10 9 10
9 0 16 -2 16 -4z m265 -5 c3 -6 -4 -9 -15 -8 -11 1 -20 5 -20 9 0 11 28 10 35
-1z m260 -1 c3 -5 -1 -10 -9 -10 -8 0 -18 5 -21 10 -3 6 1 10 9 10 8 0 18 -4
21 -10z m-4572 -20 c-3 -11 -10 -23 -16 -27 -7 -4 -8 0 -4 11 4 10 7 22 7 27
0 5 4 9 9 9 5 0 7 -9 4 -20z m1737 8 c0 -11 -38 -10 -44 1 -3 5 5 8 19 7 14 0
25 -4 25 -8z m2419 -35 c1 -8 -6 -10 -16 -6 -9 4 -12 8 -6 10 6 2 9 14 7 26
-4 21 -4 21 5 2 5 -11 10 -25 10 -32z m261 3 c0 -28 -13 -11 -16 21 -2 21 -1
24 6 13 5 -8 10 -24 10 -34z m-470 -8 c0 -14 -18 -9 -24 8 -11 28 -6 39 9 20
8 -11 15 -23 15 -28z m740 0 c0 -4 -6 -8 -14 -8 -9 0 -13 10 -12 25 1 23 2 24
14 8 6 -9 12 -20 12 -25z m-4969 -1 l39 -4 -42 1 c-30 1 -43 5 -44 16 0 8 1
10 3 3 2 -7 22 -14 44 -16z m906 11 c-3 -8 -6 -5 -6 6 -1 11 2 17 5 13 3 -3 4
-12 1 -19z m3406 15 c-7 -2 -19 -2 -25 0 -7 3 -2 5 12 5 14 0 19 -2 13 -5z
m171 -9 c8 -21 8 -24 -3 -24 -5 0 -11 9 -14 20 -6 24 8 27 17 4z m353 10 c-3
-3 -12 -4 -19 -1 -8 3 -5 6 6 6 11 1 17 -2 13 -5z m50 0 c-3 -3 -12 -4 -19 -1
-8 3 -5 6 6 6 11 1 17 -2 13 -5z m-5034 -11 c-13 -2 -33 -2 -45 0 -13 2 -3 4
22 4 25 0 35 -2 23 -4z m530 0 c-18 -2 -48 -2 -65 0 -18 2 -4 4 32 4 36 0 50
-2 33 -4z m167 -2 c0 -8 -90 -3 -99 5 -2 2 19 4 47 4 29 0 52 -4 52 -9z m288
3 c-3 -3 -42 -5 -87 -5 -45 0 -81 -4 -81 -9 0 -6 -17 -9 -37 -9 -31 2 -33 3
-10 6 15 2 27 9 27 14 0 5 43 9 97 9 53 0 94 -3 91 -6z m485 -1 c-13 -2 -35
-2 -50 0 -16 2 -5 4 22 4 28 0 40 -2 28 -4z m54 1 c-3 -3 -12 -4 -19 -1 -8 3
-5 6 6 6 11 1 17 -2 13 -5z m1723 -1 c0 -5 -24 -7 -52 -5 -95 5 -104 9 -25 11
42 0 77 -2 77 -6z m247 1 c-3 -3 -12 -4 -19 -1 -8 3 -5 6 6 6 11 1 17 -2 13
-5z m281 -1 c-21 -2 -57 -2 -80 0 -24 2 -7 4 37 4 44 0 63 -2 43 -4z m1122
-14 c0 -6 -4 -7 -10 -4 -5 3 -10 11 -10 16 0 6 5 7 10 4 6 -3 10 -11 10 -16z
m-4830 7 c0 -2 -7 -7 -16 -10 -8 -3 -12 -2 -9 4 6 10 25 14 25 6z m1630 0 c0
-3 -4 -8 -10 -11 -5 -3 -10 -1 -10 4 0 6 5 11 10 11 6 0 10 -2 10 -4z m473 -3
c-7 -2 -21 -2 -30 0 -10 3 -4 5 12 5 17 0 24 -2 18 -5z m70 0 c-7 -2 -19 -2
-25 0 -7 3 -2 5 12 5 14 0 19 -2 13 -5z m274 1 c-3 -3 -12 -4 -19 -1 -8 3 -5
6 6 6 11 1 17 -2 13 -5z m-2024 -11 c-13 -2 -33 -2 -45 0 -13 2 -3 4 22 4 25
0 35 -2 23 -4z m972 -3 c-3 -5 -17 -10 -30 -10 -18 0 -23 -4 -19 -15 6 -15 -7
-21 -19 -9 -15 15 15 44 44 44 18 0 28 -4 24 -10z m320 0 c4 -6 -11 -10 -37
-9 -36 1 -39 2 -18 9 36 11 48 11 55 0z m1280 0 c-3 -5 -19 -10 -36 -10 -16 0
-29 5 -29 10 0 6 16 10 36 10 21 0 33 -4 29 -10z m296 -2 c-23 -6 -37 -6 -44
1 -8 8 2 11 34 10 l44 -1 -34 -10z m342 5 c-13 -2 -35 -2 -50 0 -16 2 -5 4 22
4 28 0 40 -2 28 -4z m-1611 -30 c-5 -24 -6 -25 -11 -8 -3 11 -15 22 -26 23
-34 6 -30 12 7 12 33 0 35 -2 30 -27z m333 20 c-16 -3 -20 -11 -19 -41 1 -29
0 -30 -3 -7 -5 32 -23 51 -34 34 -4 -7 -9 -4 -12 5 -5 13 2 16 41 15 26 -1 38
-4 27 -6z m303 0 c-10 -2 -28 -2 -40 0 -13 2 -5 4 17 4 22 1 32 -1 23 -4z
m-1967 -36 c-8 -8 -11 -7 -11 4 0 9 3 19 7 23 4 4 9 2 11 -4 3 -7 -1 -17 -7
-23z m329 23 c0 -5 -5 -10 -11 -10 -5 0 -7 5 -4 10 3 6 8 10 11 10 2 0 4 -4 4
-10z m2287 -12 c-3 -8 -6 -5 -6 6 -1 11 2 17 5 13 3 -3 4 -12 1 -19z m293 -30
c0 -20 -4 -26 -15 -22 -11 5 -12 10 -6 18 6 7 8 23 5 37 -5 19 -3 21 5 9 6 -8
11 -27 11 -42z m40 31 c0 -6 -4 -7 -10 -4 -5 3 -10 11 -10 16 0 6 5 7 10 4 6
-3 10 -11 10 -16z m675 11 c3 -5 1 -10 -4 -10 -6 0 -11 5 -11 10 0 6 2 10 4
10 3 0 8 -4 11 -10z m-4605 -10 c0 -5 -5 -10 -11 -10 -5 0 -7 5 -4 10 3 6 8
10 11 10 2 0 4 -4 4 -10z m150 0 c0 -5 -10 -10 -22 -9 -22 0 -22 1 -3 9 11 5
21 9 23 9 1 1 2 -3 2 -9z m60 0 c0 -5 -4 -10 -10 -10 -5 0 -10 5 -10 10 0 6 5
10 10 10 6 0 10 -4 10 -10z m325 0 c3 -5 1 -10 -4 -10 -6 0 -11 5 -11 10 0 6
2 10 4 10 3 0 8 -4 11 -10z m315 0 c0 -5 -7 -10 -15 -10 -8 0 -15 5 -15 10 0
6 7 10 15 10 8 0 15 -4 15 -10z m173 -27 c-3 -18 -9 -30 -14 -28 -4 3 -6 12
-4 20 13 42 16 48 19 44 2 -2 1 -19 -1 -36z m151 26 c-3 -5 -14 -9 -25 -9 -10
0 -19 4 -19 9 0 5 11 9 25 9 13 0 22 -4 19 -9z m316 1 c-19 -13 -30 -13 -30 0
0 6 10 10 23 10 18 0 19 -2 7 -10z m180 -25 c0 -19 -4 -35 -10 -35 -11 0 -14
53 -3 63 11 12 13 8 13 -28z m150 27 c0 -4 -9 -8 -20 -9 -11 -1 -20 2 -20 8 0
5 9 9 20 9 11 0 20 -4 20 -8z m130 -14 c0 -19 -2 -20 -10 -8 -13 19 -13 30 0
30 6 0 10 -10 10 -22z m37 0 c-3 -8 -6 -5 -6 6 -1 11 2 17 5 13 3 -3 4 -12 1
-19z m928 12 c3 -5 1 -10 -4 -10 -6 0 -11 5 -11 10 0 6 2 10 4 10 3 0 8 -4 11
-10z m325 6 c0 -3 -4 -8 -10 -11 -5 -3 -10 -1 -10 4 0 6 5 11 10 11 6 0 10 -2
10 -4z m1755 -6 c3 -5 -1 -10 -9 -10 -9 0 -16 5 -16 10 0 6 4 10 9 10 6 0 13
-4 16 -10z m270 0 c3 -6 -4 -10 -17 -10 -18 0 -20 2 -8 10 19 12 18 12 25 0z
m-5212 -7 c-7 -2 -21 -2 -30 0 -10 3 -4 5 12 5 17 0 24 -2 18 -5z m2097 -2 c0
-5 -11 -8 -25 -7 -33 1 -33 16 0 16 14 0 25 -4 25 -9z m310 -1 c0 -5 -8 -10
-17 -10 -15 0 -16 2 -3 10 19 12 20 12 20 0z m330 0 c0 -5 -9 -10 -20 -10 -11
0 -20 5 -20 10 0 6 9 10 20 10 11 0 20 -4 20 -10z m300 0 c0 -5 -2 -10 -4 -10
-3 0 -8 5 -11 10 -3 6 -1 10 4 10 6 0 11 -4 11 -10z m1147 4 c-3 -3 -12 -4
-19 -1 -8 3 -5 6 6 6 11 1 17 -2 13 -5z m186 -1 c-7 -2 -21 -2 -30 0 -10 3 -4
5 12 5 17 0 24 -2 18 -5z m312 -3 c-3 -5 -12 -7 -20 -3 -21 7 -19 13 6 13 11
0 18 -4 14 -10z m104 -20 c7 -22 7 -30 -2 -30 -7 0 -12 14 -13 30 -1 38 1 38
15 0z m-4944 -9 c-3 -12 -10 -21 -15 -21 -5 0 -4 11 2 25 13 29 23 26 13 -4z
m794 -15 c-9 -8 -10 -7 -5 7 3 10 7 24 7 30 1 7 3 4 6 -7 3 -10 -1 -23 -8 -30z
m4421 8 c0 -6 -6 -11 -13 -11 -9 0 -12 9 -9 25 3 17 7 20 13 10 5 -7 9 -18 9
-24z m-4453 1 c-4 -8 -11 -15 -17 -15 -7 0 -7 6 0 21 13 23 26 19 17 -6z m646
18 c-7 -2 -13 -11 -13 -19 0 -9 -5 -12 -10 -9 -13 8 6 35 24 34 7 0 6 -2 -1
-6z m194 1 c-3 -3 -12 -4 -19 -1 -8 3 -5 6 6 6 11 1 17 -2 13 -5z m2113 -20
c0 -8 -4 -12 -10 -9 -5 3 -10 13 -10 21 0 8 5 12 10 9 6 -3 10 -13 10 -21z
m1021 -22 c-15 -4 -31 15 -31 37 0 9 8 6 23 -10 16 -18 18 -25 8 -27z m259 10
c0 -7 -4 -10 -10 -7 -5 3 -10 16 -10 28 0 18 2 19 10 7 5 -8 10 -21 10 -28z
m377 32 c-3 -3 -12 -4 -19 -1 -8 3 -5 6 6 6 11 1 17 -2 13 -5z m113 -31 c0 -7
-6 -10 -14 -7 -8 3 -12 13 -9 25 5 16 8 18 14 7 5 -7 9 -18 9 -25z m-5008 5
c-7 -7 -12 -8 -12 -2 0 6 3 14 7 17 3 4 9 5 12 2 2 -3 -1 -11 -7 -17z m608 14
c0 -13 -12 -22 -22 -16 -10 6 -1 24 13 24 5 0 9 -4 9 -8z m167 2 c-3 -3 -12
-4 -19 -1 -8 3 -5 6 6 6 11 1 17 -2 13 -5z m473 -14 c-9 -16 -13 -18 -24 -8
-12 11 -11 14 3 20 27 11 32 9 21 -12z m850 10 c0 -5 -17 -10 -37 -10 -28 0
-34 3 -23 10 20 13 60 13 60 0z m447 -12 c-3 -8 -6 -5 -6 6 -1 11 2 17 5 13 3
-3 4 -12 1 -19z m1023 1 c0 -6 -4 -7 -10 -4 -5 3 -10 11 -10 16 0 6 5 7 10 4
6 -3 10 -11 10 -16z m1217 7 c4 -7 15 -16 23 -19 10 -4 8 -6 -7 -6 -13 -1 -27
8 -33 19 -12 23 4 29 17 6z m-3910 -2 c-3 -3 -12 -4 -19 -1 -8 3 -5 6 6 6 11
1 17 -2 13 -5z m850 0 c-3 -3 -12 -4 -19 -1 -8 3 -5 6 6 6 11 1 17 -2 13 -5z
m76 -1 c-13 -2 -33 -2 -45 0 -13 2 -3 4 22 4 25 0 35 -2 23 -4z m76 -2 c9 -6
10 -11 2 -15 -6 -4 -11 -3 -11 3 0 5 -10 12 -22 14 -20 4 -20 4 -3 5 11 1 26
-2 34 -7z m289 2 c-10 -2 -28 -2 -40 0 -13 2 -5 4 17 4 22 1 32 -1 23 -4z
m210 0 c-10 -2 -26 -2 -35 0 -10 3 -2 5 17 5 19 0 27 -2 18 -5z m100 0 c-10
-2 -26 -2 -35 0 -10 3 -2 5 17 5 19 0 27 -2 18 -5z m702 -3 c0 -5 -2 -10 -4
-10 -3 0 -8 5 -11 10 -3 6 -1 10 4 10 6 0 11 -4 11 -10z m928 3 c-16 -2 -40
-2 -55 0 -16 2 -3 4 27 4 30 0 43 -2 28 -4z m-3953 -13 c4 -6 -9 -10 -32 -9
-38 1 -38 1 -8 9 17 4 31 8 32 9 1 0 5 -3 8 -9z m309 -8 c-28 -3 -32 -8 -40
-44 -5 -23 -15 -43 -22 -46 -10 -3 -9 4 3 28 9 18 15 41 12 51 -4 14 2 19 27
21 17 2 36 1 41 -2 6 -3 -4 -6 -21 -8z m346 2 c0 -2 -19 -4 -42 -4 -26 0 -38
4 -30 8 12 8 72 4 72 -4z m2607 2 c3 -3 -13 -6 -36 -6 -23 0 -40 4 -37 9 6 10
63 8 73 -3z m-2289 -3 c-16 -2 -40 -2 -55 0 -16 2 -3 4 27 4 30 0 43 -2 28 -4z
m332 -3 c-8 -5 -22 -10 -32 -10 -10 0 -19 -13 -25 -37 l-8 -37 -70 3 c-93 3
-97 11 -7 11 l72 0 0 34 c0 19 -6 37 -12 39 -7 3 12 6 42 6 39 1 51 -2 40 -9z
m330 -1 c0 -5 -18 -9 -40 -9 -22 0 -40 4 -40 9 0 5 18 9 40 9 22 0 40 -3 40
-9z m320 -1 c0 -4 -18 -8 -41 -8 -22 0 -38 3 -36 8 7 10 77 11 77 0z m324 0
c-7 -11 -61 -10 -68 1 -3 5 12 8 34 8 21 0 37 -4 34 -9z m321 2 c-3 -5 -14
-10 -25 -10 -15 0 -17 -6 -14 -42 5 -50 -1 -41 -15 20 l-9 42 35 0 c20 0 32
-4 28 -10z m318 3 c-13 -2 -33 -2 -45 0 -13 2 -3 4 22 4 25 0 35 -2 23 -4z
m64 -15 c-3 -8 -6 -5 -6 6 -1 11 2 17 5 13 3 -3 4 -12 1 -19z m-322 2 c3 -5
-1 -10 -10 -10 -9 0 -13 5 -10 10 3 6 8 10 10 10 2 0 7 -4 10 -10z m-2535 -20
c-24 -15 -36 -11 -14 4 10 8 21 12 24 10 2 -3 -2 -9 -10 -14z m480 10 c0 -5
-4 -10 -10 -10 -5 0 -10 5 -10 10 0 6 5 10 10 10 6 0 10 -4 10 -10z m32 -32
c-2 -21 -9 -38 -14 -38 -6 0 -7 13 -3 33 13 60 25 63 17 5z m286 5 c-2 -21 -7
-37 -11 -35 -8 2 -8 3 -1 42 9 42 16 37 12 -7z m1959 5 c-3 -7 -5 -2 -5 12 0
14 2 19 5 13 2 -7 2 -19 0 -25z m40 0 c-3 -7 -5 -2 -5 12 0 14 2 19 5 13 2 -7
2 -19 0 -25z m1201 -9 c14 -44 10 -63 -6 -32 -14 28 -23 73 -15 73 5 0 14 -19
21 -41z m253 27 c0 -3 8 -22 19 -41 11 -19 15 -35 10 -35 -5 0 -17 16 -25 36
-15 37 -20 62 -9 52 3 -4 5 -9 5 -12z m-4936 -6 c-3 -5 -10 -10 -16 -10 -5 0
-9 5 -9 10 0 6 7 10 16 10 8 0 12 -4 9 -10z m149 -1 c3 -3 -14 -7 -39 -7 -25
-1 -45 2 -45 6 0 9 75 10 84 1z m876 3 c0 -4 -9 -8 -20 -8 -11 0 -20 4 -20 8
0 4 9 8 20 8 11 0 20 -4 20 -8z m326 1 c-10 -11 -36 -12 -36 -2 0 5 10 9 22 9
12 0 18 -3 14 -7z m168 -32 c-4 -17 -9 -30 -11 -27 -3 2 -2 19 2 36 9 41 17
33 9 -9z m160 28 c-6 -11 -31 -12 -37 -1 -3 4 6 8 19 8 13 1 21 -2 18 -7z
m331 -4 c0 -5 -10 -11 -22 -13 -16 -2 -23 2 -23 13 0 11 7 15 23 13 12 -2 22
-7 22 -13z m122 -17 c-3 -7 -5 -2 -5 12 0 14 2 19 5 13 2 -7 2 -19 0 -25z
m208 14 c-7 -8 -55 -9 -55 -1 0 12 11 16 36 11 14 -2 22 -7 19 -10z m332 2 c2
-5 -13 -9 -32 -9 -32 0 -42 5 -30 16 8 8 59 3 62 -7z m955 -6 c-7 -7 -12 -8
-12 -2 0 14 12 26 19 19 2 -3 -1 -11 -7 -17z m768 12 c0 -5 -4 -10 -9 -10 -6
0 -13 5 -16 10 -3 6 1 10 9 10 9 0 16 -4 16 -10z m130 0 c0 -5 -8 -10 -17 -10
-15 0 -16 2 -3 10 19 12 20 12 20 0z m115 -32 c5 -19 3 -28 -5 -28 -6 0 -10 6
-7 13 2 6 0 23 -5 37 -6 17 -6 22 1 15 5 -5 13 -22 16 -37z m155 21 c0 -6 -4
-7 -10 -4 -5 3 -10 11 -10 16 0 6 5 7 10 4 6 -3 10 -11 10 -16z m116 -27 c5
-25 3 -31 -7 -27 -8 3 -14 20 -14 40 0 40 12 33 21 -13z m151 34 c-3 -8 -1
-17 6 -20 9 -3 9 -5 0 -5 -15 -1 -26 16 -18 29 9 15 18 12 12 -4z m127 -58
c-3 -4 -12 -4 -21 -1 -10 4 -12 8 -5 11 8 2 8 11 1 28 -15 40 -10 42 10 4 11
-19 17 -38 15 -42z m-2724 41 c0 -6 -4 -7 -10 -4 -5 3 -10 11 -10 16 0 6 5 7
10 4 6 -3 10 -11 10 -16z m37 -1 c-3 -8 -6 -5 -6 6 -1 11 2 17 5 13 3 -3 4
-12 1 -19z m288 12 c3 -5 1 -10 -4 -10 -6 0 -11 5 -11 10 0 6 2 10 4 10 3 0 8
-4 11 -10z m1688 3 c-7 -2 -21 -2 -30 0 -10 3 -4 5 12 5 17 0 24 -2 18 -5z
m867 -3 c0 -5 -4 -10 -9 -10 -6 0 -13 5 -16 10 -3 6 1 10 9 10 9 0 16 -4 16
-10z m-4480 -26 c0 -14 -4 -23 -9 -20 -5 3 -7 15 -4 26 7 28 13 25 13 -6z
m282 1 c-2 -15 -11 -25 -21 -25 -10 0 -12 3 -5 8 6 4 13 15 17 25 9 25 15 21
9 -8z m2678 -7 c0 -26 -9 -19 -15 11 -2 12 0 19 6 16 5 -4 9 -16 9 -27z
m-1983 -10 c-3 -7 -5 -2 -5 12 0 14 2 19 5 13 2 -7 2 -19 0 -25z m1940 10 c-3
-8 -6 -5 -6 6 -1 11 2 17 5 13 3 -3 4 -12 1 -19z m1598 12 c3 -5 -3 -10 -14
-10 -12 0 -21 5 -21 10 0 6 6 10 14 10 8 0 18 -4 21 -10z m-4848 -22 c-3 -8
-6 -5 -6 6 -1 11 2 17 5 13 3 -3 4 -12 1 -19z m2963 6 c0 -8 -5 -12 -10 -9 -6
4 -8 11 -5 16 9 14 15 11 15 -7z m1737 2 c4 -8 19 -16 33 -19 21 -4 20 -4 -7
-6 -23 -1 -35 5 -43 19 -12 23 4 29 17 6z m-5397 -6 c0 -5 -2 -10 -4 -10 -3 0
-8 5 -11 10 -3 6 -1 10 4 10 6 0 11 -4 11 -10z m87 4 c-3 -3 -12 -4 -19 -1 -8
3 -5 6 6 6 11 1 17 -2 13 -5z m40 0 c-3 -3 -12 -4 -19 -1 -8 3 -5 6 6 6 11 1
17 -2 13 -5z m116 -1 c-7 -2 -19 -2 -25 0 -7 3 -2 5 12 5 14 0 19 -2 13 -5z
m60 0 c-7 -2 -21 -2 -30 0 -10 3 -4 5 12 5 17 0 24 -2 18 -5z m60 0 c-7 -2
-21 -2 -30 0 -10 3 -4 5 12 5 17 0 24 -2 18 -5z m1364 1 c-3 -3 -12 -4 -19 -1
-8 3 -5 6 6 6 11 1 17 -2 13 -5z m76 -1 c-7 -2 -19 -2 -25 0 -7 3 -2 5 12 5
14 0 19 -2 13 -5z m254 1 c-3 -3 -12 -4 -19 -1 -8 3 -5 6 6 6 11 1 17 -2 13
-5z m50 0 c-3 -3 -12 -4 -19 -1 -8 3 -5 6 6 6 11 1 17 -2 13 -5z m400 -1 c-20
-2 -52 -2 -70 0 -17 2 0 4 38 4 39 0 53 -2 32 -4z m656 0 c-29 -2 -77 -2 -105
0 -29 2 -6 3 52 3 58 0 81 -1 53 -3z m101 -2 c3 -4 -6 -6 -19 -3 -14 2 -25 6
-25 8 0 8 39 4 44 -5z m96 -1 c0 -5 14 -10 31 -10 16 0 28 4 25 8 -3 5 28 9
70 9 41 0 69 -4 62 -8 -7 -4 -36 -6 -65 -4 -30 2 -53 0 -53 -6 0 -16 -77 -11
-84 6 -3 8 -1 15 4 15 6 0 10 -4 10 -10z m37 4 c-3 -3 -12 -4 -19 -1 -8 3 -5
6 6 6 11 1 17 -2 13 -5z m1031 -1 c-10 -2 -28 -2 -40 0 -13 2 -5 4 17 4 22 1
32 -1 23 -4z m-578 -13 c0 -6 -18 -10 -40 -10 -22 0 -40 4 -40 8 0 5 18 9 40
10 22 1 40 -3 40 -8z m317 -3 c3 -4 -10 -7 -31 -7 -20 0 -35 4 -32 8 5 9 53 8
63 -1z m-3804 -4 c-13 -2 -35 -2 -50 0 -16 2 -5 4 22 4 28 0 40 -2 28 -4z
m3127 -13 c0 -5 -9 -10 -20 -10 -11 0 -20 5 -20 10 0 6 9 10 20 10 11 0 20 -4
20 -10z m854 -5 c18 -18 116 -21 133 -4 9 9 15 1 23 -31 9 -34 9 -45 -2 -51
-17 -12 -316 -5 -327 7 -5 5 -11 26 -14 46 l-5 36 34 -4 c19 -2 49 -6 68 -8
22 -3 39 1 47 10 15 18 24 18 43 -1z m-4024 -4 c0 -6 -4 -13 -10 -16 -5 -3
-10 1 -10 9 0 9 5 16 10 16 6 0 10 -4 10 -9z m536 -20 c-11 -17 -86 -14 -86 3
0 10 13 16 38 18 40 3 58 -4 48 -21z m480 -3 l-6 -33 208 0 c804 -1 1432 -7
1432 -14 0 -5 -7 -12 -16 -15 -9 -3 -376 -5 -817 -4 l-802 3 800 5 800 5 -660
4 c-363 1 -718 5 -788 7 -78 3 -136 0 -148 -6 -17 -10 -19 -7 -19 19 0 31 9
61 17 61 3 0 2 -15 -1 -32z m2043 -30 c1 -37 -11 -39 -213 -36 -125 2 -170 6
-174 16 -2 8 2 10 14 5 12 -4 15 -3 10 5 -5 9 38 12 174 12 l182 0 -6 33 c-5
24 -4 27 3 12 5 -11 10 -32 10 -47z m756 10 c6 -29 4 -38 -6 -39 -95 -4 -236
-2 -232 4 2 4 47 7 99 6 52 -1 98 1 101 5 4 3 -50 6 -118 5 -68 0 -118 -3
-111 -6 21 -8 13 -20 -12 -16 -23 5 -45 43 -25 43 5 0 9 -8 10 -17 0 -11 3
-13 6 -5 3 9 41 12 140 12 l135 0 -7 33 c-5 22 -4 29 3 22 6 -5 14 -27 17 -47z
m415 -13 c0 -6 10 -12 23 -14 36 -5 189 -3 225 4 34 6 34 6 14 65 -3 10 -2 12
6 5 5 -5 15 -27 20 -47 9 -33 8 -37 -12 -42 -43 -10 -264 -5 -279 7 -8 7 -17
30 -21 52 l-5 40 14 -30 c8 -16 14 -35 15 -40z m352 -20 c8 -7 9 -6 4 3 -4 6
-2 12 3 12 6 0 11 -4 11 -9 0 -6 21 -12 48 -14 l47 -3 -56 -2 c-32 -1 -62 3
-71 11 -18 14 -39 72 -30 82 3 3 12 -11 19 -32 8 -21 19 -42 25 -48z m258 22
c10 -20 16 -24 22 -15 6 10 8 10 8 1 0 -9 23 -13 80 -13 86 0 110 10 103 45
-2 11 3 7 11 -10 10 -22 11 -32 3 -37 -17 -11 -209 -9 -226 1 -16 10 -41 77
-32 86 3 4 8 -2 11 -12 3 -10 12 -31 20 -46z m247 41 c-3 -8 -6 -5 -6 6 -1 11
2 17 5 13 3 -3 4 -12 1 -19z m-5207 2 c0 -5 -5 -10 -11 -10 -5 0 -7 5 -4 10 3
6 8 10 11 10 2 0 4 -4 4 -10z m284 2 c3 -5 -1 -9 -9 -9 -8 0 -15 4 -15 9 0 4
4 8 9 8 6 0 12 -4 15 -8z m646 -2 c0 -5 -5 -10 -11 -10 -5 0 -7 5 -4 10 3 6 8
10 11 10 2 0 4 -4 4 -10z m46 -3 c4 -4 -2 -7 -14 -7 -12 0 -22 4 -22 9 0 10
26 9 36 -2z m2238 -12 l-6 -26 196 3 c181 3 196 2 196 -14 0 -10 -3 -18 -7
-18 -253 -7 -375 -4 -383 10 -13 20 -13 70 0 70 6 0 8 -11 4 -25z m186 15 c0
-5 -12 -10 -27 -9 -25 0 -26 1 -8 9 27 12 35 12 35 0z m410 0 c0 -5 -15 -10
-32 -10 -25 0 -29 3 -18 10 20 13 50 13 50 0z m-3867 -7 c-7 -2 -19 -2 -25 0
-7 3 -2 5 12 5 14 0 19 -2 13 -5z m530 -15 c-4 -23 -4 -23 119 -22 l123 1
-115 -7 -115 -6 121 -2 c116 -2 122 -1 137 21 l16 22 0 -22 c1 -12 -4 -25 -11
-29 -16 -10 -281 -5 -291 5 -4 4 -3 20 2 34 13 33 20 35 14 5z m2284 0 c-3 -8
-6 -5 -6 6 -1 11 2 17 5 13 3 -3 4 -12 1 -19z m223 18 c0 -8 -61 -12 -66 -4
-3 4 11 8 30 8 20 0 36 -2 36 -4z m60 -6 c-20 -13 -40 -13 -40 0 0 6 12 10 28
10 21 0 24 -2 12 -10z m1445 0 c-27 -12 -35 -12 -35 0 0 6 12 10 28 9 24 0 25
-1 7 -9z m295 0 c0 -5 -2 -10 -4 -10 -3 0 -8 5 -11 10 -3 6 -1 10 4 10 6 0 11
-4 11 -10z m30 0 c0 -5 -4 -10 -10 -10 -5 0 -10 5 -10 10 0 6 5 10 10 10 6 0
10 -4 10 -10z m480 0 c0 -5 -4 -10 -9 -10 -6 0 -13 5 -16 10 -3 6 1 10 9 10 9
0 16 -4 16 -10z m120 -1 c0 -5 -25 -8 -55 -6 -30 1 -55 5 -55 10 0 4 25 7 55
6 30 -1 55 -6 55 -10z m-4334 -55 c-21 -15 -232 -19 -268 -5 -21 8 -25 15 -20
33 l6 23 7 -25 c4 -14 7 -19 8 -12 1 9 31 11 119 10 l117 -2 -115 -6 -115 -6
123 -2 122 -2 13 27 12 27 3 -24 c2 -14 -3 -29 -12 -36z m-810 7 c119 -2 126
-1 144 21 19 23 19 23 20 2 0 -12 -7 -25 -16 -28 -25 -10 -294 -7 -294 3 0 5
3 18 7 28 7 16 8 16 11 -3 3 -21 9 -22 128 -23z m4650 -7 c-4 -10 -20 -14 -53
-12 -37 1 -40 2 -15 5 18 2 30 9 27 14 -4 5 1 9 9 9 9 0 16 8 16 18 1 16 1 16
11 -1 6 -10 8 -25 5 -33z m167 29 c-7 -2 -19 -2 -25 0 -7 3 -2 5 12 5 14 0 19
-2 13 -5z m154 -7 c5 -8 19 -19 33 -25 l25 -10 -27 0 c-26 -1 -58 21 -58 40 0
14 18 11 27 -5z m-4899 -3 c-32 -2 -84 -2 -115 0 -32 2 -6 3 57 3 63 0 89 -1
58 -3z m2984 -92 c7 -8 8 -11 2 -8 -15 8 -2216 10 -2236 2 -10 -4 -18 -4 -18
-1 0 4 10 11 23 16 13 5 475 8 1119 7 924 -2 1099 -4 1110 -16z"/>
<path d="M4320 4885 c-7 -9 -8 -15 -2 -15 5 0 12 7 16 15 3 8 4 15 2 15 -2 0
-9 -7 -16 -15z"/>
<path d="M4295 4849 c-4 -6 -5 -12 -2 -15 2 -3 7 2 10 11 7 17 1 20 -8 4z"/>
<path d="M4870 4751 c0 -6 5 -13 10 -16 6 -3 10 1 10 9 0 9 -4 16 -10 16 -5 0
-10 -4 -10 -9z"/>
<path d="M5096 4637 c3 -10 9 -15 12 -12 3 3 0 11 -7 18 -10 9 -11 8 -5 -6z"/>
<path d="M3315 4180 l-40 -7 43 -2 c23 0 42 4 42 9 0 6 -1 9 -2 9 -2 -1 -21
-5 -43 -9z"/>
<path d="M4350 4060 c-11 -7 -6 -10 20 -10 26 0 31 3 20 10 -8 5 -17 10 -20
10 -3 0 -12 -5 -20 -10z"/>
<path d="M3523 4053 c-36 -14 0 -63 46 -63 26 0 31 4 31 24 0 14 -3 27 -7 29
-16 9 -58 15 -70 10z m27 -23 c0 -5 -7 -10 -15 -10 -8 0 -15 5 -15 10 0 6 7
10 15 10 8 0 15 -4 15 -10z"/>
<path d="M3792 4048 c-7 -7 -12 -17 -12 -23 0 -16 46 -36 65 -29 19 8 20 34 0
34 -8 0 -15 7 -15 15 0 18 -21 20 -38 3z m18 -18 c0 -5 -4 -10 -10 -10 -5 0
-10 5 -10 10 0 6 5 10 10 10 6 0 10 -4 10 -10z"/>
<path d="M4070 4050 c-13 -8 -12 -10 3 -10 9 0 17 -5 17 -11 0 -6 -9 -8 -20
-4 -32 10 -23 -12 9 -23 26 -9 29 -8 26 9 -2 10 0 19 6 19 5 0 9 -9 9 -20 0
-11 5 -20 10 -20 6 0 10 16 10 35 0 19 -5 35 -11 35 -5 0 -7 -4 -4 -10 3 -5
-1 -10 -9 -10 -9 0 -16 5 -16 10 0 13 -11 13 -30 0z"/>
<path d="M3245 4040 c-11 -18 15 -50 40 -50 31 0 33 16 4 23 -15 4 -20 11 -16
21 7 18 -18 23 -28 6z"/>
<path d="M4605 4030 c-3 -5 1 -10 9 -10 9 0 16 5 16 10 0 6 -4 10 -9 10 -6 0
-13 -4 -16 -10z"/>
<path d="M4356 4002 c-3 -5 1 -9 9 -9 8 0 15 4 15 9 0 4 -4 8 -9 8 -6 0 -12
-4 -15 -8z"/>
<path d="M3840 3800 c0 -31 -17 -39 -37 -19 -7 7 -13 7 -17 1 -4 -6 4 -18 16
-27 21 -14 24 -14 35 1 6 9 16 13 22 9 7 -4 11 7 11 29 0 25 -4 36 -15 36 -10
0 -15 -10 -15 -30z"/>
<path d="M4340 3815 c-10 -11 -10 -21 -2 -38 10 -21 10 -20 9 8 -2 24 2 31 21
33 33 5 41 -26 11 -49 -26 -20 -19 -25 12 -9 10 6 19 19 19 28 0 38 -46 56
-70 27z"/>
<path d="M4600 3790 c0 -22 2 -40 4 -40 2 0 6 18 8 40 2 22 0 40 -4 40 -5 0
-8 -18 -8 -40z"/>
<path d="M3242 3788 c3 -29 7 -33 37 -36 42 -4 54 7 45 42 -5 23 -11 26 -46
26 -38 0 -39 -1 -36 -32z m54 -15 c-10 -10 -19 5 -10 18 6 11 8 11 12 0 2 -7
1 -15 -2 -18z"/>
<path d="M3526 3795 c-23 -24 -9 -45 30 -45 41 0 45 20 10 44 -22 14 -26 14
-40 1z"/>
<path d="M4366 3795 c4 -8 10 -12 15 -9 11 6 2 24 -11 24 -5 0 -7 -7 -4 -15z"/>
<path d="M4800 3780 c0 -5 5 -10 11 -10 5 0 7 5 4 10 -3 6 -8 10 -11 10 -2 0
-4 -4 -4 -10z"/>
<path d="M4666 3765 c-3 -8 -1 -15 4 -15 6 0 10 7 10 15 0 8 -2 15 -4 15 -2 0
-6 -7 -10 -15z"/>
<path d="M3290 3585 c0 -8 8 -15 18 -15 10 0 19 7 19 15 0 8 -9 15 -19 15 -10
0 -18 -7 -18 -15z"/>
<path d="M4326 3592 c-3 -5 -3 -25 1 -45 5 -36 7 -37 50 -37 l44 0 -3 43 c-3
42 -3 42 -45 45 -22 2 -44 -1 -47 -6z"/>
<path d="M3525 3580 c-18 -8 -18 -9 5 -9 14 0 34 4 45 9 18 8 18 9 -5 9 -14 0
-34 -4 -45 -9z"/>
<path d="M4065 3569 c-4 -6 -5 -11 -4 -12 2 -1 14 -8 27 -15 30 -17 60 2 41
24 -14 17 -55 18 -64 3z"/>
<path d="M3570 3551 c0 -6 -6 -11 -12 -11 -7 0 -22 -7 -32 -15 -18 -14 -16
-15 27 -15 49 0 62 15 32 40 -10 9 -15 9 -15 1z"/>
<path d="M3248 3543 c7 -3 16 -2 19 1 4 3 -2 6 -13 5 -11 0 -14 -3 -6 -6z"/>
<path d="M3290 3529 c0 -14 5 -19 17 -17 26 5 29 38 4 38 -15 0 -21 -6 -21
-21z"/>
<path d="M3450 3269 c0 -5 11 -9 25 -9 14 0 25 2 25 4 0 2 -11 6 -25 8 -14 3
-25 1 -25 -3z"/>
<path d="M3343 3263 c9 -2 23 -2 30 0 6 3 -1 5 -18 5 -16 0 -22 -2 -12 -5z"/>
<path d="M3244 3146 c-3 -8 -4 -25 -2 -38 2 -19 9 -23 38 -23 33 0 35 2 35 35
0 32 -3 35 -33 38 -21 2 -34 -2 -38 -12z"/>
<path d="M3428 3133 c6 -2 18 -2 25 0 6 3 1 5 -13 5 -14 0 -19 -2 -12 -5z"/>
<path d="M4061 3123 c-1 -16 5 -23 17 -23 10 0 21 3 25 6 8 8 -3 34 -14 34 -4
0 -6 -7 -3 -15 4 -8 1 -15 -4 -15 -6 0 -13 8 -15 18 -4 13 -5 11 -6 -5z"/>
<path d="M4268 3133 c7 -3 16 -2 19 1 4 3 -2 6 -13 5 -11 0 -14 -3 -6 -6z"/>
<path d="M4215 2980 c-3 -5 -1 -10 4 -10 6 0 11 5 11 10 0 6 -2 10 -4 10 -3 0
-8 -4 -11 -10z"/>
<path d="M3273 2968 c1 -7 -6 -12 -17 -11 -12 1 -15 -2 -8 -9 6 -6 18 -8 26
-5 17 7 22 37 6 37 -5 0 -9 -6 -7 -12z"/>
<path d="M4068 2973 c6 -2 18 -2 25 0 6 3 1 5 -13 5 -14 0 -19 -2 -12 -5z"/>
<path d="M4060 2948 c0 -5 9 -8 19 -8 11 0 22 3 24 8 3 4 -6 7 -19 7 -13 0
-24 -3 -24 -7z"/>
<path d="M3240 2809 c0 -5 5 -7 10 -4 6 3 10 8 10 11 0 2 -4 4 -10 4 -5 0 -10
-5 -10 -11z"/>
<path d="M3275 2810 c3 -6 -4 -15 -17 -20 l-23 -10 25 3 c24 2 43 37 20 37 -6
0 -8 -5 -5 -10z"/>
<path d="M4061 2788 c1 -17 2 -19 6 -5 3 11 13 17 31 16 24 -2 24 -2 5 -6 -31
-6 -29 -23 2 -23 18 0 25 5 25 20 0 16 -7 20 -35 20 -30 0 -35 -3 -34 -22z"/>
<path d="M3305 2565 c2 -11 0 -27 -5 -35 -8 -12 -10 -9 -10 13 0 15 -5 27 -11
27 -6 0 -9 -7 -5 -15 3 -8 -2 -21 -10 -30 -14 -13 -14 -16 0 -21 38 -15 67 21
47 59 -10 19 -10 19 -6 2z"/>
<path d="M3478 2533 c7 -3 16 -2 19 1 4 3 -2 6 -13 5 -11 0 -14 -3 -6 -6z"/>
<path d="M2218 4373 c6 -2 18 -2 25 0 6 3 1 5 -13 5 -14 0 -19 -2 -12 -5z"/>
<path d="M2088 3767 c-11 -27 -8 -116 5 -159 9 -29 15 -35 26 -29 13 8 12 18
-2 68 -9 32 -18 76 -20 98 -1 29 -4 35 -9 22z"/>
<path d="M5938 3813 c7 -3 16 -2 19 1 4 3 -2 6 -13 5 -11 0 -14 -3 -6 -6z"/>
<path d="M5745 3660 c3 -5 8 -10 11 -10 2 0 4 5 4 10 0 6 -5 10 -11 10 -5 0
-7 -4 -4 -10z"/>
<path d="M6238 3508 c5 -5 16 -8 23 -6 8 3 3 7 -10 11 -17 4 -21 3 -13 -5z"/>
<path d="M5472 2786 c7 -8 15 -12 17 -11 5 6 -10 25 -20 25 -5 0 -4 -6 3 -14z"/>
<path d="M5050 3180 c0 -5 7 -10 16 -10 8 0 12 5 9 10 -3 6 -10 10 -16 10 -5
0 -9 -4 -9 -10z"/>
<path d="M3690 2370 c-20 -12 -1 -45 27 -46 21 -1 27 22 10 44 -11 14 -17 15
-37 2z m36 -11 c10 -17 -13 -36 -27 -22 -12 12 -4 33 11 33 5 0 12 -5 16 -11z"/>
<path d="M4304 2355 c-11 -27 4 -47 33 -43 22 2 29 9 31 31 3 24 0 27 -28 27
-18 0 -33 -6 -36 -15z m46 -15 c0 -5 -4 -10 -10 -10 -5 0 -10 5 -10 10 0 6 5
10 10 10 6 0 10 -4 10 -10z"/>
<path d="M6160 2355 c-7 -9 -10 -18 -6 -22 3 -3 6 -1 6 5 0 7 9 12 20 12 11 0
20 -5 20 -12 0 -6 3 -8 6 -5 7 7 -14 37 -26 37 -4 0 -13 -7 -20 -15z"/>
<path d="M6588 2363 c7 -3 16 -2 19 1 4 3 -2 6 -13 5 -11 0 -14 -3 -6 -6z"/>
<path d="M3808 2343 c-4 -16 -1 -23 15 -27 12 -3 26 -1 31 4 7 7 2 10 -11 10
-12 0 -23 7 -25 18 -3 14 -5 13 -10 -5z"/>
<path d="M3931 2343 c-1 -19 4 -23 27 -22 22 1 23 2 5 6 -12 2 -24 12 -26 21
-3 12 -5 10 -6 -5z"/>
<path d="M4180 2352 c0 -17 28 -45 38 -38 8 4 5 13 -8 26 -21 21 -30 25 -30
12z"/>
<path d="M6251 2344 c0 -11 3 -14 6 -6 3 7 2 16 -1 19 -3 4 -6 -2 -5 -13z"/>
<path d="M6370 2350 c0 -5 9 -10 20 -10 11 0 20 5 20 10 0 6 -9 10 -20 10 -11
0 -20 -4 -20 -10z"/>
<path d="M3590 2330 c0 -5 7 -10 15 -10 8 0 15 5 15 10 0 6 -7 10 -15 10 -8 0
-15 -4 -15 -10z"/>
<path d="M4078 2323 c6 -2 18 -2 25 0 6 3 1 5 -13 5 -14 0 -19 -2 -12 -5z"/>
<path d="M3807 2103 c-15 -14 -6 -24 20 -21 34 4 43 28 11 28 -14 0 -28 -3
-31 -7z"/>
<path d="M5310 1362 c0 -5 7 -17 16 -28 8 -10 13 -13 9 -6 -5 9 13 12 77 10
46 -1 73 -4 61 -6 -50 -8 -19 -18 55 -17 78 0 109 12 99 39 -3 8 -28 14 -72
15 -45 1 -65 -1 -60 -8 3 -6 1 -11 -4 -11 -6 0 -11 5 -11 10 0 6 -35 10 -85
10 -47 0 -85 -4 -85 -8z"/>
<path d="M5373 1323 c15 -2 37 -2 50 0 12 2 0 4 -28 4 -27 0 -38 -2 -22 -4z"/>
<path d="M4199 1319 c16 -6 28 -6 35 1 7 7 -1 10 -24 9 -33 0 -34 -1 -11 -10z"/>
<path d="M4270 1321 c14 -3 70 -4 125 0 l100 5 -125 1 c-69 1 -114 -2 -100 -6z"/>
<path d="M4663 1323 c48 -2 125 -2 170 0 45 1 6 3 -88 3 -93 0 -130 -2 -82 -3z"/>
<path d="M1070 1316 c0 -9 30 -14 35 -6 4 6 -3 10 -14 10 -12 0 -21 -2 -21 -4z"/>
<path d="M631 914 c0 -11 3 -14 6 -6 3 7 2 16 -1 19 -3 4 -6 -2 -5 -13z"/>
<path d="M626 877 c3 -10 9 -15 12 -12 3 3 0 11 -7 18 -10 9 -11 8 -5 -6z"/>
<path d="M600 875 c5 -23 -1 -34 -16 -28 -12 4 -14 0 -9 -23 5 -22 4 -26 -4
-14 -9 13 -12 12 -17 -7 -4 -13 -11 -23 -16 -23 -6 0 -8 -13 -6 -29 2 -17 1
-28 -3 -26 -4 3 -9 -1 -12 -9 -3 -8 1 -17 9 -20 23 -9 26 -7 18 7 -6 9 -4 9 7
2 8 -6 30 -10 49 -9 19 1 90 2 158 3 74 1 122 5 122 11 0 6 -5 10 -11 10 -6 0
-18 9 -27 20 -10 11 -28 23 -42 25 -47 9 -80 27 -80 45 0 13 -11 20 -41 25
-22 4 -49 17 -60 28 -11 12 -20 18 -19 12z m14 -60 c-4 -8 -8 -15 -10 -15 -2
0 -4 7 -4 15 0 8 4 15 10 15 5 0 7 -7 4 -15z"/>
<path d="M7361 854 c0 -11 3 -14 6 -6 3 7 2 16 -1 19 -3 4 -6 -2 -5 -13z"/>
<path d="M6792 820 c0 -14 2 -19 5 -12 2 6 2 18 0 25 -3 6 -5 1 -5 -13z"/>
<path d="M7370 821 c0 -6 4 -13 10 -16 6 -3 7 1 4 9 -7 18 -14 21 -14 7z"/>
<path d="M7380 771 c0 -12 5 -21 10 -21 6 0 10 6 10 14 0 8 -4 18 -10 21 -5 3
-10 -3 -10 -14z"/>
<path d="M7305 724 l-16 -26 75 4 c77 3 81 5 70 32 -8 20 -34 21 -34 1 0 -18
-20 -20 -20 -2 0 6 -5 4 -11 -5 -12 -21 -41 -24 -33 -4 10 26 -14 26 -31 0z"/>
<path d="M890 710 c0 -5 5 -10 10 -10 6 0 10 5 10 10 0 6 -4 10 -10 10 -5 0
-10 -4 -10 -10z"/>
<path d="M526 640 c-2 -3 -1 -25 2 -50 l4 -45 3434 0 c3042 0 3436 2 3444 15
5 8 10 32 10 52 l0 36 -3446 -1 c-1895 -1 -3447 -4 -3448 -7z"/>
</g>
</svg>
